# xmcd
#
# Track frame offsets:
#	150
#	13975
#	26227
#	39911
#	53106
#	67433
#	81315
#	95980
#	108945
#	123940
#	137054
#	151016
#	164350
#	178337
#	192019
#	204603
#	219025
#	233590
#	249282
#	265274
#
# Disc length: 3716 seconds
#
# Revision: 0
# Processed by: cddbd v1.4PL0 Copyright (c) Steve Scherf et al.
# Submitted via: dBpowerAMP V4.0
#
DISCID=190e8214
DTITLE=Various Artist - The Essential Country Blues Guitar Collection vol 3
DYEAR=1999
DGENRE=Blues
TTITLE0=Pony Blues - Charlie Patton
TTITLE1=Crossroad Blues - Robert Johnson
TTITLE2=Playing with the strings - Lonnie Johnson
TTITLE3=Howling Wolf Blues - Funny Papa Smith
TTITLE4=Lawdy lawdy worried blues - Teddy Darby
TTITLE5=Blind Blake's breakdown - Blind Blake
TTITLE6=Boogie woogie dance - Tampa Red
TTITLE7=Rising river blues - George Carter
TTITLE8=Motherless child blues - Barbecue Bob
TTITLE9=Come on in my kitchen - Robert Johnson
TTITLE10=Special rider blues - Skip James
TTITLE11=That's no way to get along - Rev. Robert Wilkins
TTITLE12=Roll and tumble blues - Hambone Willie Newburn
TTITLE13=Don't sell it don't give it away - Oscar Woods
TTITLE14=Fishing Blues - Henry Thomas
TTITLE15=Try me one more time - Marshal Owens
TTITLE16=Fare thee well blues - Joe Calicott
TTITLE17=Preacher's Blues - Hi Henry Brown
TTITLE18=No woman no nickle - Bumble Bee Slim
TTITLE19=God moves on the water - Blind Willie Johnson
EXTD=
EXTT0=
EXTT1=
EXTT2=
EXTT3=
EXTT4=
EXTT5=
EXTT6=
EXTT7=
EXTT8=
EXTT9=
EXTT10=
EXTT11=
EXTT12=
EXTT13=
EXTT14=
EXTT15=
EXTT16=
EXTT17=
EXTT18=
EXTT19=
PLAYORDER=
